<svg width="2151" height="1503" xmlns="http://www.w3.org/2000/svg" xmlns:xlink="http://www.w3.org/1999/xlink" xml:space="preserve" overflow="hidden"><g transform="translate(-72 -620)"><rect x="173.5" y="828.5" width="597" height="214" stroke="#172C51" stroke-width="4.58333" stroke-miterlimit="8" fill="#3B3838"/><text fill="#FFFFFF" font-family="Calibri,Calibri_MSFontService,sans-serif" font-weight="400" font-size="83" transform="matrix(1 0 0 1 352.606 962)">Images </text><rect x="173.5" y="1108.5" width="597" height="424" stroke="#172C51" stroke-width="4.58333" stroke-miterlimit="8" fill="#7C7C7C"/><text fill="#FFFFFF" font-family="Calibri,Calibri_MSFontService,sans-serif" font-weight="400" font-size="83" transform="matrix(1 0 0 1 284.269 1199)">Meta Data:</text><text fill="#FFFFFF" font-family="Calibri,Calibri_MSFontService,sans-serif" font-weight="400" font-size="83" transform="matrix(1 0 0 1 237.106 1298)">Camera GPS + </text><text fill="#FFFFFF" font-family="Calibri,Calibri_MSFontService,sans-serif" font-weight="400" font-size="83" transform="matrix(1 0 0 1 279.044 1397)">Orientation </text><text fill="#FFFFFF" font-family="Calibri,Calibri_MSFontService,sans-serif" font-weight="400" font-size="83" transform="matrix(1 0 0 1 209.102 1496)">(yaw/pitch/roll)</text><path d="M1344.5 708.834C1344.5 683.797 1364.8 663.5 1389.83 663.5L2088.17 663.5C2113.2 663.5 2133.5 683.797 2133.5 708.834L2133.5 890.166C2133.5 915.203 2113.2 935.5 2088.17 935.5L1389.83 935.5C1364.8 935.5 1344.5 915.203 1344.5 890.166Z" stroke="#172C51" stroke-width="4.58333" stroke-miterlimit="8" fill="#4472C4" fill-rule="evenodd"/><text fill="#FFFFFF" font-family="Calibri,Calibri_MSFontService,sans-serif" font-weight="400" font-size="83" transform="matrix(1 0 0 1 1507.91 826)">segmentation</text><path d="M1344.5 992.168C1344.5 970.26 1362.26 952.5 1384.17 952.5L2093.83 952.5C2115.74 952.5 2133.5 970.26 2133.5 992.168L2133.5 1150.83C2133.5 1172.74 2115.74 1190.5 2093.83 1190.5L1384.17 1190.5C1362.26 1190.5 1344.5 1172.74 1344.5 1150.83Z" stroke="#172C51" stroke-width="4.58333" stroke-miterlimit="8" fill="#4472C4" fill-rule="evenodd"/><text fill="#FFFFFF" font-family="Calibri,Calibri_MSFontService,sans-serif" font-weight="400" font-size="83" transform="matrix(1 0 0 1 1447.22 1099)">Depth estimation</text><path d="M1344.5 1360.17C1344.5 1329.42 1369.42 1304.5 1400.17 1304.5L2077.83 1304.5C2108.58 1304.5 2133.5 1329.42 2133.5 1360.17L2133.5 1582.83C2133.5 1613.58 2108.58 1638.5 2077.83 1638.5L1400.17 1638.5C1369.42 1638.5 1344.5 1613.58 1344.5 1582.83Z" stroke="#172C51" stroke-width="4.58333" stroke-miterlimit="8" fill="#548235" fill-rule="evenodd"/><text fill="#FFFFFF" font-family="Calibri,Calibri_MSFontService,sans-serif" font-weight="400" font-size="83" transform="matrix(1 0 0 1 1420.48 1449)">Information Fusion </text><text fill="#FFFFFF" font-family="Calibri,Calibri_MSFontService,sans-serif" font-weight="400" font-size="83" transform="matrix(1 0 0 1 1616.72 1548)">(graph)</text><path d="M79.0001 756.669C79.0001 686.159 136.159 629 206.669 629L717.331 629C787.84 629 845 686.159 845 756.669L845 1481.33C845 1551.84 787.84 1609 717.331 1609L206.669 1609C136.159 1609 79.0001 1551.84 79.0001 1481.33Z" stroke="#172C51" stroke-width="13.75" stroke-miterlimit="8" fill="none" fill-rule="evenodd"/><text font-family="Calibri,Calibri_MSFontService,sans-serif" font-weight="400" font-size="83" transform="matrix(1 0 0 1 347.286 722)">Inputs (</text><text font-family="Calibri,Calibri_MSFontService,sans-serif" font-style="italic" font-weight="400" font-size="83" transform="matrix(1 0 0 1 602.234 722)">n</text><text font-family="Calibri,Calibri_MSFontService,sans-serif" font-weight="400" font-size="83" transform="matrix(1 0 0 1 644.629 722)">)</text><path d="M0-6.875 41.25-6.875 41.25 6.875 0 6.875ZM55-6.875 96.25-6.875 96.25 6.875 55 6.875ZM110-6.875 151.25-6.875 151.25 6.875 110 6.875ZM165-6.875 206.25-6.875 206.25 6.875 165 6.875ZM220-6.875 261.25-6.875 261.25 6.875 220 6.875ZM275-6.875 293.66-6.875 293.66 29.4647 279.91 29.4647 279.91 0 286.785 6.875 275 6.875ZM293.66 43.2147 293.66 84.4647 279.91 84.4647 279.91 43.2147ZM293.66 98.2147 293.66 136.028 286.785 129.153 290.222 129.153 290.222 142.903 279.91 142.903 279.91 98.2147ZM303.972 129.153 345.222 129.153 345.222 142.903 303.972 142.903ZM358.972 129.153 400.222 129.153 400.222 142.903 358.972 142.903ZM413.972 129.153 455.222 129.153 455.222 142.903 413.972 142.903ZM468.972 129.153 510.222 129.153 510.222 142.903 468.972 142.903ZM523.972 129.153 539.196 129.153 539.196 142.903 523.972 142.903ZM532.321 115.403 573.571 136.028 532.321 156.653Z" transform="matrix(1 0 0 -1 770 935.028)"/><path d="M770 928.125 811.25 928.125 811.25 941.875 770 941.875ZM825 928.125 866.25 928.125 866.25 941.875 825 941.875ZM880 928.125 921.25 928.125 921.25 941.875 880 941.875ZM935 928.125 976.25 928.125 976.25 941.875 935 941.875ZM990 928.125 1031.25 928.125 1031.25 941.875 990 941.875ZM1045 928.125 1063.66 928.125 1063.66 964.465 1049.91 964.465 1049.91 935 1056.79 941.875 1045 941.875ZM1063.66 978.215 1063.66 1019.46 1049.91 1019.46 1049.91 978.215ZM1063.66 1033.21 1063.66 1071.03 1056.79 1064.15 1060.22 1064.15 1060.22 1077.9 1049.91 1077.9 1049.91 1033.21ZM1073.97 1064.15 1115.22 1064.15 1115.22 1077.9 1073.97 1077.9ZM1128.97 1064.15 1170.22 1064.15 1170.22 1077.9 1128.97 1077.9ZM1183.97 1064.15 1225.22 1064.15 1225.22 1077.9 1183.97 1077.9ZM1238.97 1064.15 1280.22 1064.15 1280.22 1077.9 1238.97 1077.9ZM1293.97 1064.15 1309.2 1064.15 1309.2 1077.9 1293.97 1077.9ZM1302.32 1050.4 1343.57 1071.03 1302.32 1091.65Z"/><path d="M2133 792.125 2146.75 792.125 2146.75 805.875 2133 805.875ZM2160.5 792.125 2174.25 792.125 2174.25 805.875 2160.5 805.875ZM2188 792.125 2201.75 792.125 2201.75 805.875 2188 805.875ZM2208.62 799 2208.62 812.75 2222.38 812.75 2222.38 799ZM2222.38 826.5 2222.38 840.25 2208.62 840.25 2208.62 826.5ZM2222.38 854 2222.38 867.75 2208.62 867.75 2208.62 854ZM2222.38 881.5 2222.38 895.25 2208.62 895.25 2208.62 881.5ZM2222.38 909 2222.38 922.75 2208.62 922.75 2208.62 909ZM2222.38 936.5 2222.38 950.25 2208.62 950.25 2208.62 936.5ZM2222.38 964 2222.38 977.75 2208.62 977.75 2208.62 964ZM2222.38 991.5 2222.38 1005.25 2208.62 1005.25 2208.62 991.5ZM2222.38 1019 2222.38 1032.75 2208.62 1032.75 2208.62 1019ZM2222.38 1046.5 2222.38 1060.25 2208.62 1060.25 2208.62 1046.5ZM2222.38 1074 2222.38 1087.75 2208.62 1087.75 2208.62 1074ZM2222.38 1101.5 2222.38 1115.25 2208.62 1115.25 2208.62 1101.5ZM2222.38 1129 2222.38 1142.75 2208.62 1142.75 2208.62 1129ZM2222.38 1156.5 2222.38 1170.25 2208.62 1170.25 2208.62 1156.5ZM2222.38 1184 2222.38 1197.75 2208.62 1197.75 2208.62 1184ZM2222.38 1211.5 2222.38 1225.25 2208.62 1225.25 2208.62 1211.5ZM2222.38 1239 2222.38 1252.75 2208.62 1252.75 2208.62 1239ZM2222.38 1266.5 2222.38 1280.25 2208.62 1280.25 2208.62 1266.5ZM2222.38 1294 2222.38 1307.75 2208.62 1307.75 2208.62 1294ZM2222.38 1321.5 2222.38 1335.25 2208.62 1335.25 2208.62 1321.5ZM2222.38 1349 2222.38 1362.75 2208.62 1362.75 2208.62 1349ZM2222.38 1376.5 2222.38 1390.25 2208.62 1390.25 2208.62 1376.5ZM2222.38 1404 2222.38 1417.75 2208.62 1417.75 2208.62 1404ZM2222.38 1431.5 2222.38 1445.25 2208.62 1445.25 2208.62 1431.5ZM2222.38 1459 2222.38 1478.15 2214.03 1478.15 2214.03 1464.4 2215.5 1464.4 2208.62 1471.28 2208.62 1459ZM2200.28 1478.15 2186.53 1478.15 2186.53 1464.4 2200.28 1464.4ZM2172.78 1478.15 2171.96 1478.15 2171.96 1464.4 2172.78 1464.4ZM2178.83 1491.9 2137.58 1471.28 2178.83 1450.65Z" fill="#4472C4"/><path d="M2133 1064.13 2146.75 1064.13 2146.75 1077.88 2133 1077.88ZM2160.5 1064.13 2174.25 1064.13 2174.25 1077.88 2160.5 1077.88ZM2188 1064.13 2201.75 1064.13 2201.75 1077.88 2188 1077.88ZM2208.62 1071 2208.62 1084.75 2222.38 1084.75 2222.38 1071ZM2222.38 1098.5 2222.38 1112.25 2208.62 1112.25 2208.62 1098.5ZM2222.38 1126 2222.38 1139.75 2208.62 1139.75 2208.62 1126ZM2222.38 1153.5 2222.38 1167.25 2208.62 1167.25 2208.62 1153.5ZM2222.38 1181 2222.38 1194.75 2208.62 1194.75 2208.62 1181ZM2222.38 1208.5 2222.38 1222.25 2208.62 1222.25 2208.62 1208.5ZM2222.38 1236 2222.38 1249.75 2208.62 1249.75 2208.62 1236ZM2222.38 1263.5 2222.38 1277.25 2208.62 1277.25 2208.62 1263.5ZM2222.38 1291 2222.38 1304.75 2208.62 1304.75 2208.62 1291ZM2222.38 1318.5 2222.38 1332.25 2208.62 1332.25 2208.62 1318.5ZM2222.38 1346 2222.38 1359.75 2208.62 1359.75 2208.62 1346ZM2222.38 1373.5 2222.38 1387.25 2208.62 1387.25 2208.62 1373.5ZM2222.38 1401 2222.38 1414.75 2208.62 1414.75 2208.62 1401ZM2222.38 1428.5 2222.38 1442.25 2208.62 1442.25 2208.62 1428.5ZM2222.38 1456 2222.38 1469.75 2208.62 1469.75 2208.62 1456ZM2203.22 1478.1 2189.47 1478.1 2189.47 1464.35 2203.22 1464.35ZM2175.72 1478.1 2171.96 1478.1 2171.96 1464.35 2175.72 1464.35ZM2178.83 1491.85 2137.58 1471.22 2178.83 1450.6Z" fill="#4472C4"/><path d="M770 1313.12 811.25 1313.12 811.25 1326.88 770 1326.88ZM825 1313.12 866.25 1313.12 866.25 1326.88 825 1326.88ZM880 1313.12 921.25 1313.12 921.25 1326.88 880 1326.88ZM935 1313.12 976.25 1313.12 976.25 1326.88 935 1326.88ZM990 1313.12 1031.25 1313.12 1031.25 1326.88 990 1326.88ZM1045 1313.12 1063.66 1313.12 1063.66 1349.46 1049.91 1349.46 1049.91 1320 1056.79 1326.88 1045 1326.88ZM1063.66 1363.21 1063.66 1404.46 1049.91 1404.46 1049.91 1363.21ZM1063.66 1418.21 1063.66 1459.46 1049.91 1459.46 1049.91 1418.21ZM1058.75 1464.38 1100 1464.38 1100 1478.12 1058.75 1478.12ZM1113.75 1464.38 1155 1464.38 1155 1478.12 1113.75 1478.12ZM1168.75 1464.38 1210 1464.38 1210 1478.12 1168.75 1478.12ZM1223.75 1464.38 1265 1464.38 1265 1478.12 1223.75 1478.12ZM1278.75 1464.38 1309.2 1464.38 1309.2 1478.12 1278.75 1478.12ZM1302.32 1450.62 1343.57 1471.25 1302.32 1491.88Z"/><path d="M1344 1815.5C1344 1784.85 1368.85 1760 1399.5 1760L2077.5 1760C2108.15 1760 2133 1784.85 2133 1815.5L2133 2037.5C2133 2068.15 2108.15 2093 2077.5 2093L1399.5 2093C1368.85 2093 1344 2068.15 1344 2037.5Z" stroke="#548235" stroke-width="13.75" stroke-miterlimit="8" fill="none" fill-rule="evenodd"/><text font-family="Calibri,Calibri_MSFontService,sans-serif" font-weight="400" font-size="83" transform="matrix(1 0 0 1 1607.21 1854)">Output:</text><text font-family="Calibri,Calibri_MSFontService,sans-serif" font-weight="400" font-size="83" transform="matrix(1 0 0 1 1562.68 1953)">List of GPS </text><text font-family="Calibri,Calibri_MSFontService,sans-serif" font-weight="400" font-size="83" transform="matrix(1 0 0 1 1587.86 2052)">locations</text><path d="M6.875-2.03728e-05 6.87526 87.4117-6.87474 87.4118-6.875 2.03728e-05ZM20.6252 80.5367 0.000360892 121.787-20.6248 80.5368Z" fill="#548235" transform="matrix(-1 0 0 1 1738 1638)"/></g></svg>